<?xml version="1.0" encoding="UTF-8"?>
<svg width="20px" height="20px" viewBox="0 0 20 20" version="1.1" xmlns="http://www.w3.org/2000/svg" xmlns:xlink="http://www.w3.org/1999/xlink">
    <title>47A54263-3689-40FA-8620-96F741B863AF</title>
    <g id="Admin-BRD-v.5.0" stroke="none" stroke-width="1" fill="none" fill-rule="evenodd">
        <g id="2.0-dashboard_empty" transform="translate(-1396, -379)">
            <g id="Admin/Menu" transform="translate(1174, 64)">
                <g id="Group-3" transform="translate(13, 20)">
                    <g id="Group-Copy-6" transform="translate(0, 288)">
                        <g id="ListMagnifyingGlass" transform="translate(209, 7)">
                            <rect id="Rectangle" x="0" y="0" width="20" height="20"></rect>
                            <path d="M2.5,5 C2.5,4.65482203 2.77982203,4.375 3.125,4.375 L16.875,4.375 C17.220178,4.375 17.5,4.65482203 17.5,5 C17.5,5.34517797 17.220178,5.625 16.875,5.625 L3.125,5.625 C2.77982203,5.625 2.5,5.34517797 2.5,5 Z M3.125,10.625 L8.75,10.625 C9.09517797,10.625 9.375,10.345178 9.375,10 C9.375,9.65482203 9.09517797,9.375 8.75,9.375 L3.125,9.375 C2.77982203,9.375 2.5,9.65482203 2.5,10 C2.5,10.345178 2.77982203,10.625 3.125,10.625 Z M10,14.375 L3.125,14.375 C2.77982203,14.375 2.5,14.654822 2.5,15 C2.5,15.345178 2.77982203,15.625 3.125,15.625 L10,15.625 C10.345178,15.625 10.625,15.345178 10.625,15 C10.625,14.654822 10.345178,14.375 10,14.375 Z M18.5671875,15.4421875 C18.4499573,15.5595482 18.2908808,15.6254917 18.125,15.6254917 C17.9591192,15.6254917 17.8000427,15.5595482 17.6828125,15.4421875 L16.09375,13.85625 C14.755084,14.7394467 12.9651579,14.4659135 11.9513666,13.2232188 C10.9375753,11.9805241 11.0290644,10.172131 12.1630977,9.0380977 C13.297131,7.90406442 15.1055241,7.81257529 16.3482188,8.82636658 C17.5909135,9.84015787 17.8644467,11.630084 16.98125,12.96875 L18.5671875,14.5546875 C18.6855079,14.6720416 18.7520615,14.831789 18.7520615,14.9984375 C18.7520615,15.165086 18.6855079,15.3248334 18.5671875,15.4421875 Z M14.375,13.125 C15.4105339,13.125 16.25,12.2855339 16.25,11.25 C16.25,10.2144661 15.4105339,9.375 14.375,9.375 C13.3394661,9.375 12.5,10.2144661 12.5,11.25 C12.5,12.2855339 13.3394661,13.125 14.375,13.125 Z" id="Shape" fill="#4B4F58"></path>
                        </g>
                    </g>
                </g>
            </g>
        </g>
    </g>
</svg>