<?xml version="1.0" encoding="UTF-8"?>
<svg width="20px" height="20px" viewBox="0 0 20 20" version="1.1" xmlns="http://www.w3.org/2000/svg" xmlns:xlink="http://www.w3.org/1999/xlink">
    <title>63A5D80B-DEDA-4D15-A7BC-9923BE03C88E</title>
    <g id="Admin-BRD-v.5.0" stroke="none" stroke-width="1" fill="none" fill-rule="evenodd">
        <g id="2.0-dashboard_empty" transform="translate(-1396, -91)">
            <g id="Admin/Menu" transform="translate(1174, 64)">
                <g id="Group-3" transform="translate(13, 20)">
                    <g id="SquaresFour" transform="translate(209, 7)">
                        <path d="M8.125,3.125 L4.375,3.125 C3.68464406,3.125 3.125,3.68464406 3.125,4.375 L3.125,8.125 C3.125,8.81535594 3.68464406,9.375 4.375,9.375 L8.125,9.375 C8.81535594,9.375 9.375,8.81535594 9.375,8.125 L9.375,4.375 C9.375,3.68464406 8.81535594,3.125 8.125,3.125 Z M8.125,8.125 L4.375,8.125 L4.375,4.375 L8.125,4.375 L8.125,8.125 Z M15.625,3.125 L11.875,3.125 C11.1846441,3.125 10.625,3.68464406 10.625,4.375 L10.625,8.125 C10.625,8.81535594 11.1846441,9.375 11.875,9.375 L15.625,9.375 C16.3153559,9.375 16.875,8.81535594 16.875,8.125 L16.875,4.375 C16.875,3.68464406 16.3153559,3.125 15.625,3.125 Z M15.625,8.125 L11.875,8.125 L11.875,4.375 L15.625,4.375 L15.625,8.125 Z M8.125,10.625 L4.375,10.625 C3.68464406,10.625 3.125,11.1846441 3.125,11.875 L3.125,15.625 C3.125,16.3153559 3.68464406,16.875 4.375,16.875 L8.125,16.875 C8.81535594,16.875 9.375,16.3153559 9.375,15.625 L9.375,11.875 C9.375,11.1846441 8.81535594,10.625 8.125,10.625 Z M8.125,15.625 L4.375,15.625 L4.375,11.875 L8.125,11.875 L8.125,15.625 Z M15.625,10.625 L11.875,10.625 C11.1846441,10.625 10.625,11.1846441 10.625,11.875 L10.625,15.625 C10.625,16.3153559 11.1846441,16.875 11.875,16.875 L15.625,16.875 C16.3153559,16.875 16.875,16.3153559 16.875,15.625 L16.875,11.875 C16.875,11.1846441 16.3153559,10.625 15.625,10.625 Z M15.625,15.625 L11.875,15.625 L11.875,11.875 L15.625,11.875 L15.625,15.625 Z" id="Shape" fill="#92722A" fill-rule="nonzero"></path>
                        <rect id="Rectangle" x="0" y="0" width="20" height="20"></rect>
                    </g>
                </g>
            </g>
        </g>
    </g>
</svg>