<?xml version="1.0" encoding="UTF-8"?>
<svg width="20px" height="20px" viewBox="0 0 20 20" version="1.1" xmlns="http://www.w3.org/2000/svg" xmlns:xlink="http://www.w3.org/1999/xlink">
    <title>B5F91FB9-8182-4F26-BE51-77AE6D298B2C</title>
    <g id="Admin-BRD-v.5.0" stroke="none" stroke-width="1" fill="none" fill-rule="evenodd">
        <g id="2.0-dashboard_empty" transform="translate(-1396, -187)">
            <g id="Admin/Menu" transform="translate(1174, 64)">
                <g id="Group-3" transform="translate(13, 20)">
                    <g id="Group-Copy-2" transform="translate(0, 96)">
                        <g id="Stack" transform="translate(209, 7)">
                            <rect id="Rectangle" x="0" y="0" width="20" height="20"></rect>
                            <path d="M18.0398438,13.4375 C18.2117057,13.7357437 18.1100649,14.1168093 17.8125,14.2898437 L10.3125,18.6648437 C10.1179366,18.7783025 9.87737586,18.7783025 9.6828125,18.6648437 L2.1828125,14.2898437 C1.88968399,14.1136973 1.79255572,13.7346698 1.96484412,13.4392572 C2.13713252,13.1438446 2.51485405,13.0417555 2.8125,13.2101562 L10,17.4015625 L17.1875,13.2101562 C17.4857437,13.0382943 17.8668093,13.1399351 18.0398438,13.4375 Z M17.1875,9.46015625 L10,13.6515625 L2.8125,9.46015625 C2.5171326,9.31309494 2.15832785,9.42096785 1.99302576,9.70652721 C1.82772367,9.99208657 1.91287373,10.3569521 2.1875,10.5398438 L9.6875,14.9148438 C9.88206336,15.0283025 10.1226241,15.0283025 10.3171875,14.9148438 L17.8171875,10.5398438 C18.0132295,10.428928 18.1344218,10.2211061 18.1344218,9.99586231 C18.1344218,9.77061853 18.0132161,9.56280033 17.8171706,9.45189071 C17.6211252,9.34098109 17.3805666,9.34413885 17.1875,9.46015625 Z M1.875,6.25 C1.87550726,6.02721725 1.99456365,5.82154734 2.1875,5.71015625 L9.6875,1.33515625 C9.88206336,1.22169749 10.1226241,1.22169749 10.3171875,1.33515625 L17.8171875,5.71015625 C18.0091811,5.82216727 18.1272371,6.02772088 18.1272371,6.25 C18.1272371,6.47227912 18.0091811,6.67783273 17.8171875,6.78984375 L10.3171875,11.1648438 C10.1226241,11.2783025 9.88206336,11.2783025 9.6875,11.1648438 L2.1875,6.78984375 C1.99456365,6.67845266 1.87550726,6.47278275 1.875,6.25 Z M3.740625,6.25 L10,9.9015625 L16.259375,6.25 L10,2.5984375 L3.740625,6.25 Z" id="Shape" fill="#4B4F58"></path>
                        </g>
                    </g>
                </g>
            </g>
        </g>
    </g>
</svg>