<?xml version="1.0" encoding="UTF-8"?>
<svg width="20px" height="20px" viewBox="0 0 20 20" version="1.1" xmlns="http://www.w3.org/2000/svg" xmlns:xlink="http://www.w3.org/1999/xlink">
    <title>F181CBDA-60CE-4EF9-A98C-DD00A55F7D12</title>
    <g id="Admin-BRD-v.5.0" stroke="none" stroke-width="1" fill="none" fill-rule="evenodd">
        <g id="2.0-dashboard_empty" transform="translate(-1396, -139)">
            <g id="Admin/Menu" transform="translate(1174, 64)">
                <g id="Group-3" transform="translate(13, 20)">
                    <g id="Group-Copy" transform="translate(0, 48)">
                        <g id="UsersThree" transform="translate(209, 7)">
                            <path d="M19.125,11.75 C18.9923918,11.8494562 18.825706,11.8921605 18.6616117,11.8687184 C18.4975173,11.8452764 18.3494562,11.7576082 18.25,11.625 C17.4860513,10.5981257 16.2798687,9.99503442 15,10 C14.7487275,9.99997656 14.5219009,9.84947699 14.4242188,9.61796875 C14.3586715,9.46262075 14.3586715,9.28737925 14.4242188,9.13203125 C14.5219009,8.90052301 14.7487275,8.75002344 15,8.75 C15.9743636,8.74991475 16.7862845,8.00354381 16.8681983,7.03262953 C16.9501122,6.06171524 16.2747171,5.18986282 15.3141407,5.02653104 C14.3535642,4.86319925 13.4279659,5.4628265 13.184375,6.40625 C13.1285523,6.62256316 12.9615682,6.79266368 12.7463242,6.85247634 C12.5310801,6.912289 12.3002767,6.85272684 12.1408554,6.69622634 C11.9814341,6.53972584 11.9176147,6.31006315 11.9734375,6.09375 C12.3072183,4.80221267 13.4240294,3.86494871 14.7538895,3.76030481 C16.0837496,3.65566091 17.3334107,4.40671215 17.8650894,5.63014828 C18.3967682,6.85358442 18.0932239,8.27962495 17.109375,9.18046875 C17.9592263,9.54843476 18.6980131,10.1323537 19.2523438,10.8742187 C19.3517977,11.007168 19.3942646,11.1742259 19.3703738,11.3385299 C19.3464831,11.502834 19.2581982,11.6508798 19.125,11.75 Z M14.915625,16.5625 C15.0387871,16.7562432 15.0458173,17.0019137 14.9339362,17.202383 C14.822055,17.4028523 14.6092741,17.5258471 14.3797187,17.5227974 C14.1501633,17.5196328 13.9407893,17.390924 13.834375,17.1875 C13.0333255,15.83111 11.5752695,14.9988596 10,14.9988596 C8.42473046,14.9988596 6.96667452,15.83111 6.165625,17.1875 C6.05921071,17.390924 5.84983666,17.5196328 5.6202813,17.5227974 C5.39072593,17.5258471 5.17794497,17.4028523 5.06606382,17.202383 C4.95418267,17.0019137 4.96121289,16.7562432 5.084375,16.5625 C5.69031093,15.5213896 6.61421378,14.7020899 7.7203125,14.225 C6.44414539,13.2479188 5.93254373,11.5662281 6.44837103,10.0439888 C6.96419832,8.52174958 8.39273833,7.49749687 10,7.49749687 C11.6072617,7.49749687 13.0358017,8.52174958 13.551629,10.0439888 C14.0674563,11.5662281 13.5558546,13.2479188 12.2796875,14.225 C13.3857862,14.7020899 14.3096891,15.5213896 14.915625,16.5625 Z M10,13.75 C11.3807119,13.75 12.5,12.6307119 12.5,11.25 C12.5,9.86928813 11.3807119,8.75 10,8.75 C8.61928813,8.75 7.5,9.86928813 7.5,11.25 C7.5,12.6307119 8.61928813,13.75 10,13.75 Z M5.625,9.375 C5.625,9.02982203 5.34517797,8.75 5,8.75 C4.0256364,8.74991475 3.21371554,8.00354381 3.13180169,7.03262953 C3.04988784,6.06171524 3.72528285,5.18986282 4.68585932,5.02653104 C5.64643579,4.86319925 6.5720341,5.4628265 6.815625,6.40625 C6.90191949,6.74064116 7.24295259,6.94176324 7.57734375,6.85546875 C7.91173491,6.76917426 8.11285699,6.42814116 8.0265625,6.09375 C7.69278171,4.80221267 6.57597063,3.86494871 5.24611051,3.76030481 C3.91625039,3.65566091 2.66658933,4.40671215 2.13491056,5.63014828 C1.60323179,6.85358442 1.90677606,8.27962495 2.890625,9.18046875 C2.04162743,9.54878274 1.30368273,10.1326748 0.75,10.8742187 C0.615885836,11.0528515 0.587258702,11.2894641 0.674902163,11.4949268 C0.762545625,11.7003894 0.953144554,11.8434875 1.17490218,11.8703174 C1.3966598,11.8971473 1.61588585,11.8036328 1.75,11.625 C2.51394874,10.5981257 3.72013132,9.99503442 5,10 C5.34517797,10 5.625,9.72017797 5.625,9.375 Z" id="Shape" fill="#4B4F58" fill-rule="nonzero"></path>
                            <rect id="Rectangle" x="0" y="0" width="20" height="20"></rect>
                        </g>
                    </g>
                </g>
            </g>
        </g>
    </g>
</svg>