<?xml version="1.0" encoding="UTF-8"?>
<svg width="20px" height="20px" viewBox="0 0 20 20" version="1.1" xmlns="http://www.w3.org/2000/svg" xmlns:xlink="http://www.w3.org/1999/xlink">
    <title>C1FD7DFF-B743-4D0F-9BC0-14E6B8849289</title>
    <g id="Admin-BRD-v.5.0" stroke="none" stroke-width="1" fill="none" fill-rule="evenodd">
        <g id="2.0-dashboard_empty" transform="translate(-1396, -283)">
            <g id="Admin/Menu" transform="translate(1174, 64)">
                <g id="Group-3" transform="translate(13, 20)">
                    <g id="Group-Copy-4" transform="translate(0, 192)">
                        <g id="Wrench" transform="translate(209, 7)">
                            <path d="M17.4417486,5.11676086 C17.364791,4.92655302 17.1993739,4.7862343 16.9991619,4.74132695 C16.79895,4.69641959 16.5894483,4.75264439 16.4386236,4.89176086 L13.2901861,7.79722961 L11.9440923,7.50816711 L11.6550298,6.16207336 L14.5604986,3.01363586 C14.6996151,2.86281112 14.7558399,2.65330949 14.7109325,2.45309753 C14.6660251,2.25288558 14.5257064,2.08746847 14.3354986,2.01051086 C12.6014253,1.30904363 10.6320917,1.51549351 9.08119256,2.56133215 C7.53029345,3.60717078 6.60075429,5.35555671 6.60112358,7.22613586 C6.60011213,8.00400976 6.7596922,8.77371768 7.06987358,9.48707336 L2.36596733,13.5542609 C2.35424858,13.5636359 2.34331108,13.5745734 2.33237358,13.5847296 C1.70073918,14.216364 1.45405787,15.1369912 1.68525211,15.9998198 C1.91644634,16.8626485 2.59039222,17.5365944 3.45322086,17.7677886 C4.31604949,17.9989828 5.23667668,17.7523015 5.86831108,17.1206671 C5.87846733,17.1105109 5.88940483,17.0987921 5.89877983,17.0878546 L9.96518608,12.3823859 C11.7054329,13.1462944 13.7137487,12.9797869 15.3044292,11.9397144 C16.8951097,10.899642 17.8530295,9.12666518 17.8511315,7.22613586 C17.8523415,6.50315497 17.7133159,5.78680121 17.4417486,5.11676086 Z M12.2261236,11.6011359 C11.4863358,11.6001198 10.7588247,11.4119936 10.1112798,11.0542609 C9.85272722,10.9114256 9.52947886,10.9691019 9.33627983,11.1925421 L4.96909233,16.2503546 C4.47763696,16.7172657 3.70358476,16.7073554 3.2242444,16.228015 C2.74490404,15.7486747 2.73499372,14.9746225 3.20190483,14.4831671 L8.25581108,10.1167609 C8.47965196,9.92345707 8.5373575,9.59971922 8.39409233,9.34097961 C7.58106432,7.87049423 7.68203928,6.06429988 8.65390332,4.69359856 C9.62576736,3.32289724 11.2967834,2.62990416 12.9534673,2.91051086 L10.5159673,5.55191711 C10.3783409,5.70121494 10.321821,5.90806622 10.3644048,6.10660461 L10.8065923,8.16363586 C10.8582511,8.40394635 11.0459693,8.59166457 11.2862798,8.64332336 L13.3448736,9.08551086 C13.543412,9.12809474 13.7502633,9.07157481 13.8995611,8.93394836 L16.5409673,6.49644836 C16.7541019,7.76621573 16.3977178,9.06544296 15.5665534,10.0487543 C14.735389,11.0320656 13.5136537,11.5998367 12.2261236,11.6011359 Z" id="Shape" fill="#4B4F58" fill-rule="nonzero"></path>
                            <rect id="Rectangle" x="0" y="0" width="20" height="20"></rect>
                        </g>
                    </g>
                </g>
            </g>
        </g>
    </g>
</svg>