<?xml version="1.0" encoding="UTF-8"?>
<svg width="20px" height="20px" viewBox="0 0 20 20" version="1.1" xmlns="http://www.w3.org/2000/svg" xmlns:xlink="http://www.w3.org/1999/xlink">
    <title>4151DE4A-A9CA-484E-ACA9-E65F0596DE26</title>
    <g id="Admin-BRD-v.5.0" stroke="none" stroke-width="1" fill="none" fill-rule="evenodd">
        <g id="2.0-dashboard_empty" transform="translate(-1396, -235)">
            <g id="Admin/Menu" transform="translate(1174, 64)">
                <g id="Group-3" transform="translate(13, 20)">
                    <g id="Group-Copy-3" transform="translate(0, 144)">
                        <g id="Article" transform="translate(209, 7)">
                            <path d="M16.875,3.125 L3.125,3.125 C2.43464406,3.125 1.875,3.68464406 1.875,4.375 L1.875,15.625 C1.875,16.3153559 2.43464406,16.875 3.125,16.875 L16.875,16.875 C17.5653559,16.875 18.125,16.3153559 18.125,15.625 L18.125,4.375 C18.125,3.68464406 17.5653559,3.125 16.875,3.125 Z M16.875,15.625 L3.125,15.625 L3.125,4.375 L16.875,4.375 L16.875,15.625 Z M14.375,7.5 C14.375,7.84517797 14.095178,8.125 13.75,8.125 L6.25,8.125 C5.90482203,8.125 5.625,7.84517797 5.625,7.5 C5.625,7.15482203 5.90482203,6.875 6.25,6.875 L13.75,6.875 C14.095178,6.875 14.375,7.15482203 14.375,7.5 Z M14.375,10 C14.375,10.345178 14.095178,10.625 13.75,10.625 L6.25,10.625 C5.90482203,10.625 5.625,10.345178 5.625,10 C5.625,9.65482203 5.90482203,9.375 6.25,9.375 L13.75,9.375 C14.095178,9.375 14.375,9.65482203 14.375,10 Z M14.375,12.5 C14.375,12.845178 14.095178,13.125 13.75,13.125 L6.25,13.125 C5.90482203,13.125 5.625,12.845178 5.625,12.5 C5.625,12.154822 5.90482203,11.875 6.25,11.875 L13.75,11.875 C14.095178,11.875 14.375,12.154822 14.375,12.5 Z" id="Shape" fill="#4B4F58" fill-rule="nonzero"></path>
                            <rect id="Rectangle" x="0" y="0" width="20" height="20"></rect>
                        </g>
                    </g>
                </g>
            </g>
        </g>
    </g>
</svg>