<?xml version="1.0" encoding="UTF-8"?>
<svg width="20px" height="20px" viewBox="0 0 20 20" version="1.1" xmlns="http://www.w3.org/2000/svg" xmlns:xlink="http://www.w3.org/1999/xlink">
    <title>DCB5D299-B085-44EB-B374-F00788101553</title>
    <g id="Admin-BRD-v.5.0" stroke="none" stroke-width="1" fill="none" fill-rule="evenodd">
        <g id="2.0-dashboard_empty" transform="translate(-1396, -331)">
            <g id="Admin/Menu" transform="translate(1174, 64)">
                <g id="Group-3" transform="translate(13, 20)">
                    <g id="Group-Copy-5" transform="translate(0, 240)">
                        <g id="Buildings" transform="translate(209, 7)">
                            <rect id="Rectangle" x="0" y="0" width="20" height="20"></rect>
                            <path d="M18.75,16.25 L17.5,16.25 L17.5,7.5 C17.5,6.80964406 16.9403559,6.25 16.25,6.25 L11.25,6.25 L11.25,2.5 C11.2502997,2.0387793 10.9965972,1.61486929 10.589982,1.3971798 C10.1833668,1.17949032 9.68991662,1.20339736 9.30625,1.459375 L3.05625,5.625 C2.70801724,5.85733539 2.49920526,6.24856457 2.5,6.6671875 L2.5,16.25 L1.25,16.25 C0.904822031,16.25 0.625,16.529822 0.625,16.875 C0.625,17.220178 0.904822031,17.5 1.25,17.5 L18.75,17.5 C19.095178,17.5 19.375,17.220178 19.375,16.875 C19.375,16.529822 19.095178,16.25 18.75,16.25 Z M16.25,7.5 L16.25,16.25 L11.25,16.25 L11.25,7.5 L16.25,7.5 Z M3.75,6.6671875 L10,2.5 L10,16.25 L3.75,16.25 L3.75,6.6671875 Z M8.75,8.75 L8.75,10 C8.75,10.345178 8.47017797,10.625 8.125,10.625 C7.77982203,10.625 7.5,10.345178 7.5,10 L7.5,8.75 C7.5,8.40482203 7.77982203,8.125 8.125,8.125 C8.47017797,8.125 8.75,8.40482203 8.75,8.75 Z M6.25,8.75 L6.25,10 C6.25,10.345178 5.97017797,10.625 5.625,10.625 C5.27982203,10.625 5,10.345178 5,10 L5,8.75 C5,8.40482203 5.27982203,8.125 5.625,8.125 C5.97017797,8.125 6.25,8.40482203 6.25,8.75 Z M6.25,13.125 L6.25,14.375 C6.25,14.720178 5.97017797,15 5.625,15 C5.27982203,15 5,14.720178 5,14.375 L5,13.125 C5,12.779822 5.27982203,12.5 5.625,12.5 C5.97017797,12.5 6.25,12.779822 6.25,13.125 Z M8.75,13.125 L8.75,14.375 C8.75,14.720178 8.47017797,15 8.125,15 C7.77982203,15 7.5,14.720178 7.5,14.375 L7.5,13.125 C7.5,12.779822 7.77982203,12.5 8.125,12.5 C8.47017797,12.5 8.75,12.779822 8.75,13.125 Z" id="Shape" fill="#4B4F58"></path>
                        </g>
                    </g>
                </g>
            </g>
        </g>
    </g>
</svg>